<svg width="33" height="32" viewBox="0 0 33 32" fill="none" xmlns="http://www.w3.org/2000/svg">
<g clip-path="url(#clip0_3345_759)">
<path d="M23.281 23.272C23.3183 23.1033 23.3517 22.933 23.381 22.761C23.4916 22.126 23.5471 21.4826 23.547 20.838C23.5489 18.8669 23.0249 16.931 22.029 15.23L23.258 10.823C23.579 9.67283 23.6295 8.46401 23.4058 7.29106C23.182 6.1181 22.6899 5.01281 21.968 4.06162C21.2461 3.11042 20.314 2.3391 19.2445 1.80798C18.175 1.27685 16.9971 1.00032 15.803 1H9.03901C7.84483 1.00012 6.66687 1.27652 5.59727 1.80758C4.52768 2.33865 3.59545 3.10997 2.87351 4.06122C2.15158 5.01247 1.65951 6.11785 1.43581 7.29089C1.2121 8.46393 1.26283 9.67282 1.58401 10.823L2.80901 15.23C2.02091 16.5796 1.52597 18.0801 1.35645 19.6337C1.18693 21.1874 1.34662 22.7593 1.82513 24.2471C2.30365 25.7349 3.09023 27.1052 4.13366 28.2687C5.17708 29.4322 6.45393 30.3629 7.88101 31H12.42M5.95301 6.401C6.31258 5.92312 6.77887 5.5359 7.31468 5.27026C7.85049 5.00461 8.44098 4.86789 9.03901 4.871H15.807C16.4041 4.87095 16.9932 5.00904 17.5281 5.27448C18.063 5.53991 18.5292 5.92549 18.8903 6.40106C19.2514 6.87663 19.4976 7.42929 19.6096 8.01581C19.7216 8.60234 19.6964 9.20683 19.536 9.782L18.963 11.836C17.0627 10.4543 14.7736 9.70998 12.424 9.70998C10.0745 9.70998 7.78531 10.4543 5.88501 11.836L5.30701 9.782C5.14419 9.20704 5.11781 8.60201 5.22996 8.01506C5.3421 7.42811 5.58969 6.87543 5.95301 6.401Z" fill="white"/>
<path d="M23.281 23.272C23.3183 23.1033 23.3517 22.933 23.381 22.761C23.4916 22.126 23.5471 21.4826 23.547 20.838C23.5489 18.8669 23.0249 16.931 22.029 15.23L23.258 10.823C23.579 9.67283 23.6295 8.46401 23.4058 7.29106C23.182 6.1181 22.6899 5.01281 21.968 4.06162C21.2461 3.11042 20.314 2.3391 19.2445 1.80798C18.175 1.27685 16.9971 1.00032 15.803 1H9.03901C7.84483 1.00012 6.66687 1.27652 5.59727 1.80758C4.52768 2.33865 3.59545 3.10997 2.87351 4.06122C2.15158 5.01247 1.65951 6.11785 1.43581 7.29089C1.2121 8.46393 1.26283 9.67282 1.58401 10.823L2.80901 15.23C2.02091 16.5796 1.52597 18.0801 1.35645 19.6337C1.18693 21.1874 1.34662 22.7593 1.82513 24.2471C2.30365 25.7349 3.09023 27.1052 4.13366 28.2687C5.17708 29.4322 6.45393 30.3629 7.88101 31H12.42M5.95301 6.401C6.31258 5.92312 6.77887 5.5359 7.31468 5.27026C7.85049 5.00461 8.44098 4.86789 9.03901 4.871H15.807C16.4041 4.87095 16.9932 5.00904 17.5281 5.27448C18.063 5.53991 18.5292 5.92549 18.8903 6.40106C19.2514 6.87663 19.4976 7.42929 19.6096 8.01581C19.7216 8.60234 19.6964 9.20683 19.536 9.782L18.963 11.836C17.0627 10.4543 14.7736 9.70998 12.424 9.70998C10.0745 9.70998 7.78531 10.4543 5.88501 11.836L5.30701 9.782C5.14419 9.20704 5.11781 8.60201 5.22996 8.01506C5.3421 7.42811 5.58969 6.87543 5.95301 6.401V6.401Z" stroke="#303030" stroke-width="2" stroke-linecap="round" stroke-linejoin="round"/>
<path d="M12.417 27.13C11.1729 27.13 9.95684 26.7611 8.92245 26.0699C7.88806 25.3788 7.08186 24.3964 6.60578 23.2471C6.12971 22.0977 6.00515 20.833 6.24785 19.6129C6.49055 18.3927 7.08961 17.272 7.96928 16.3923C8.84896 15.5126 9.96973 14.9136 11.1899 14.6709C12.41 14.4282 13.6747 14.5527 14.8241 15.0288C15.9734 15.5049 16.9558 16.3111 17.6469 17.3455C18.3381 18.3798 18.707 19.5959 18.707 20.84" fill="white"/>
<path d="M12.417 27.13C11.1729 27.13 9.95684 26.7611 8.92245 26.0699C7.88806 25.3788 7.08186 24.3964 6.60578 23.2471C6.12971 22.0977 6.00515 20.833 6.24785 19.6129C6.49055 18.3927 7.08961 17.272 7.96928 16.3923C8.84896 15.5126 9.96973 14.9136 11.1899 14.6709C12.41 14.4282 13.6747 14.5527 14.8241 15.0288C15.9734 15.5049 16.9558 16.3111 17.6469 17.3455C18.3381 18.3798 18.707 19.5959 18.707 20.84" stroke="#303030" stroke-width="2" stroke-linecap="round" stroke-linejoin="round"/>
<path d="M30.259 22.29H28.452C27.8821 22.29 27.42 22.752 27.42 23.322V29.968C27.42 30.5379 27.8821 31 28.452 31H30.259C30.829 31 31.291 30.5379 31.291 29.968V23.322C31.291 22.752 30.829 22.29 30.259 22.29Z" fill="white" stroke="#303030" stroke-width="1.5" stroke-linecap="round" stroke-linejoin="round"/>
<path d="M17.194 22.29H15.387C14.8171 22.29 14.355 22.752 14.355 23.322V29.968C14.355 30.5379 14.8171 31 15.387 31H17.194C17.764 31 18.226 30.5379 18.226 29.968V23.322C18.226 22.752 17.764 22.29 17.194 22.29Z" fill="white" stroke="#303030" stroke-width="1.5" stroke-linecap="round" stroke-linejoin="round"/>
<path d="M27.42 28.097H18.226" stroke="#303030" stroke-width="1.5" stroke-linecap="round" stroke-linejoin="round"/>
<path d="M27.42 25.194H18.226" stroke="#303030" stroke-width="1.5" stroke-linecap="round" stroke-linejoin="round"/>
</g>
<defs>
<clipPath id="clip0_3345_759">
<rect width="32.041" height="32" fill="white"/>
</clipPath>
</defs>
</svg>
