<svg width="32" height="32" viewBox="0 0 32 32" fill="none" xmlns="http://www.w3.org/2000/svg">
<g clip-path="url(#clip0_3345_768)">
<path d="M18.7 20H12.7C10.3131 20 8.02388 20.9482 6.33605 22.636C4.64822 24.3239 3.70001 26.6131 3.70001 29C7.53558 30.4269 11.609 31.1058 15.7 31C19.791 31.1058 23.8644 30.4269 27.7 29C27.7 26.6131 26.7518 24.3239 25.064 22.636C23.3761 20.9482 21.087 20 18.7 20Z" fill="white" stroke="#363435" stroke-width="2" stroke-linecap="square"/>
<path d="M8.70001 8C8.70001 6.14348 9.43751 4.36301 10.7503 3.05025C12.063 1.7375 13.8435 1 15.7 1C17.5565 1 19.337 1.7375 20.6498 3.05025C21.9625 4.36301 22.7 6.14348 22.7 8C22.7 11.866 19.566 16 15.7 16C11.834 16 8.70001 11.866 8.70001 8Z" fill="white" stroke="#363435" stroke-width="2" stroke-linecap="square"/>
</g>
<defs>
<clipPath id="clip0_3345_768">
<rect width="32" height="32" fill="white"/>
</clipPath>
</defs>
</svg>
