<svg width="32" height="32" viewBox="0 0 32 32" fill="none" xmlns="http://www.w3.org/2000/svg">
<g clip-path="url(#clip0_3345_750)">
<path d="M16 31C11.9934 31 8.22652 29.4397 5.3934 26.6066C2.56027 23.7735 1 20.0067 1 16C1 11.9934 2.56027 8.22652 5.3934 5.3934C8.22652 2.56027 11.9934 1 16 1C20.0067 1 23.7735 2.56027 26.6066 5.3934C29.4397 8.22652 31 11.9934 31 16C31 20.0067 29.4397 23.7735 26.6066 26.6066C23.7735 29.4397 20.0067 31 16 31Z" fill="white"/>
<path d="M16 2C12.2605 2 8.74475 3.45625 6.1005 6.1005C3.45625 8.74475 2 12.2605 2 16C2 19.7395 3.45625 23.2552 6.1005 25.8995C8.74475 28.5438 12.2605 30 16 30C19.7395 30 23.2552 28.5438 25.8995 25.8995C28.5438 23.2552 30 19.7395 30 16C30 12.2605 28.5438 8.74475 25.8995 6.1005C23.2552 3.45625 19.7395 2 16 2ZM16 0C24.8366 0 32 7.16344 32 16C32 24.8366 24.8366 32 16 32C7.16344 32 0 24.8366 0 16C0 7.16344 7.16344 0 16 0Z" fill="#363435"/>
<path d="M12 20.5537V11.4464C12 10.9266 12.3483 10.6684 12.4981 10.5815C12.6478 10.4946 13.0449 10.3203 13.4961 10.5781L21.465 15.1318C21.9198 15.3916 21.9689 15.8255 21.9689 16C21.9689 16.1745 21.9198 16.6084 21.465 16.8683L13.4961 21.4219C13.0449 21.6798 12.6478 21.5055 12.4981 21.4186C12.3483 21.3317 12 21.0734 12 20.5537Z" fill="white"/>
<path d="M20.9689 16L13 11.4464V20.5537L20.9689 16C20.9689 16 20.9689 16 20.9689 16ZM22.9689 16C22.9689 16.6763 22.633 17.3526 21.9612 17.7365L13.9923 22.2901C12.659 23.052 11 22.0893 11 20.5537V11.4464C11 9.91073 12.659 8.948 13.9923 9.70989L21.9612 14.2635C22.633 14.6474 22.9689 15.3237 22.9689 16Z" fill="#363435"/>
</g>
<defs>
<clipPath id="clip0_3345_750">
<rect width="32" height="32" fill="white"/>
</clipPath>
</defs>
</svg>
